# xmcd
#
# Track frame offsets:
# 150
# 14219
# 32915
# 45944
# 61958
# 78477
# 92709
# 110677
# 122872
# 138917
# 153423
# 169832
#
# Disc length: 2506 seconds
#
# Revision: 0
# Processed by: cddbd v1.4PL0 Copyright (c) Steve Scherf et al.
# Submitted via: Audion 3.0.2 (http://www.panic.com/audion/)
#
DISCID=9f09c80c
DTITLE=Harris, Emmylou - Profile - The Best Of
DYEAR=1900
DGENRE=
TTITLE0=One Of These Days
TTITLE1=Sweet Dreams
TTITLE2=To Daddy
TTITLE3=You Never Can Tell
TTITLE4=Making Believe
TTITLE5=Easy From Now On
TTITLE6=Together Again
TTITLE7=If I Could Only Win Your Love
TTITLE8=Too Far Gone
TTITLE9=Two More Bottles Of Wine
TTITLE10=Boulder To Birmingham
TTITLE11=Hello Stranger
EXTD=
EXTT0=
EXTT1=
EXTT2=
EXTT3=
EXTT4=
EXTT5=
EXTT6=
EXTT7=
EXTT8=
EXTT9=
EXTT10=
EXTT11=
PLAYORDER=
